<?xml version="1.0" encoding="UTF-8"?>
<!DOCTYPE svg PUBLIC "-//W3C//DTD SVG 1.1//EN" "http://www.w3.org/Graphics/SVG/1.1/DTD/svg11.dtd">
<!-- Creator: CorelDRAW 2021.5 -->
<svg xmlns="http://www.w3.org/2000/svg" xml:space="preserve" width="435px" height="435px" version="1.1" style="shape-rendering:geometricPrecision; text-rendering:geometricPrecision; image-rendering:optimizeQuality; fill-rule:evenodd; clip-rule:evenodd"
viewBox="0 0 33.28 33.28"
 xmlns:xlink="http://www.w3.org/1999/xlink"
 xmlns:xodm="http://www.corel.com/coreldraw/odm/2003">
 <defs>
  <style type="text/css">
   <![CDATA[
    .fil0 {fill:white}
    .fil1 {fill:url(#id0)}
   ]]>
  </style>
  <radialGradient id="id0" gradientUnits="userSpaceOnUse" gradientTransform="matrix(0.752302 0.474503 -0.498522 0.79038 13 -5)" cx="16.99" cy="16.64" r="12.2" fx="16.99" fy="16.64">
   <stop offset="0" style="stop-opacity:1; stop-color:#02A1BD"/>
   <stop offset="0.388235" style="stop-opacity:1; stop-color:#018C9F"/>
   <stop offset="1" style="stop-opacity:1; stop-color:#007782"/>
  </radialGradient>
 </defs>
 <g id="Layer_x0020_1">
  <metadata id="CorelCorpID_0Corel-Layer"/>
  <rect class="fil0" width="33.28" height="33.28"/>
  <path class="fil1" d="M19.85 14.05l0.85 13.24c0,0.24 -0.32,0.3 -0.42,0.08l-6.29 -11.68c-0.17,-0.36 -0.4,-0.6 -0.61,-0.61 -0.5,-0.04 -0.89,0.15 -1.14,0.56 -0.19,0.32 -0.18,0.73 0.03,1.04 0.72,1 1.13,1.72 1.24,2.19 0.78,3.27 3.81,8.56 4.75,10.6 0.69,1.49 0.37,1.75 -0.96,0.78 -4.86,-3.56 -8.22,-9.26 -9.16,-14.8 -0.46,-2.67 0.17,-5.36 1.9,-8.05 1.35,-2.12 2.19,-3.36 2.52,-3.75 1.43,-1.66 3.25,-1.59 5.46,0.21 4.24,3.41 6.64,7.95 7.19,13.61 0.38,4.01 -0.57,7.69 -2.85,11.04 -0.12,0.17 -0.27,0.21 -0.45,0.12 -0.11,-0.06 -0.19,-0.14 -0.25,-0.24 -0.02,-0.04 -0.02,-0.08 -0.01,-0.12 1.12,-2.79 0.71,-7.29 0.21,-10.5 -0.3,-1.97 -0.71,-1.46 -0.05,-3.44 0.36,-0.57 -0.04,-1.34 -0.72,-1.36 -0.14,0 -0.29,0.02 -0.43,0.06 -0.53,0.13 -0.8,0.48 -0.81,1.02l0 0z"/>
 </g>
</svg>
